<svg xmlns="http://www.w3.org/2000/svg" xmlns:xlink="http://www.w3.org/1999/xlink" width="500" zoomAndPan="magnify" viewBox="0 0 375 374.999991" height="500" preserveAspectRatio="xMidYMid meet" version="1.0"><defs><clipPath id="34cdc41805"><path d="M 5.773438 136 L 212 136 L 212 375 L 5.773438 375 Z M 5.773438 136 " clip-rule="nonzero"/></clipPath><clipPath id="a552594ad6"><path d="M 163.25 0 L 369.238281 0 L 369.238281 239 L 163.25 239 Z M 163.25 0 " clip-rule="nonzero"/></clipPath></defs><g clip-path="url(#34cdc41805)"><path fill="#ec6832" d="M 186.546875 136.050781 L 30.832031 136.050781 C 16.992188 136.050781 5.773438 147.269531 5.773438 161.109375 L 5.773438 316.824219 C 5.773438 328.894531 14.304688 338.960938 25.667969 341.347656 L 18.21875 375.011719 L 93.433594 341.882812 L 186.546875 341.882812 C 200.386719 341.882812 211.605469 330.664062 211.605469 316.824219 L 211.605469 161.109375 C 211.605469 147.269531 200.386719 136.050781 186.546875 136.050781 " fill-opacity="1" fill-rule="nonzero"/></g><path fill="#ffffff" d="M 129.523438 226.914062 C 129.523438 218.109375 127.320312 210.890625 122.921875 205.246094 C 118.519531 199.605469 112.4375 196.78125 104.667969 196.78125 C 97.007812 196.78125 91.039062 199.605469 86.769531 205.246094 C 82.496094 210.890625 80.359375 218.109375 80.359375 226.914062 L 80.359375 247.417969 C 80.359375 256.375 82.507812 263.675781 86.804688 269.320312 C 91.105469 274.964844 97.109375 277.785156 104.824219 277.785156 C 112.59375 277.785156 118.648438 274.964844 123 269.320312 C 127.347656 263.675781 129.523438 256.375 129.523438 247.417969 Z M 152.125 247.417969 C 152.125 253.113281 151.335938 258.472656 149.753906 263.5 C 148.175781 268.515625 145.9375 273.050781 143.035156 277.085938 L 159.894531 293.9375 L 145.050781 306.058594 L 128.515625 289.746094 C 125.042969 291.613281 121.328125 293.023438 117.367188 293.976562 C 113.40625 294.9375 109.222656 295.417969 104.824219 295.417969 C 90.84375 295.417969 79.503906 290.886719 70.804688 281.828125 C 62.109375 272.761719 57.757812 261.292969 57.757812 247.417969 L 57.757812 227.070312 C 57.757812 213.246094 62.09375 201.789062 70.765625 192.703125 C 79.4375 183.617188 90.738281 179.070312 104.667969 179.070312 C 118.699219 179.070312 130.117188 183.617188 138.917969 192.703125 C 147.722656 201.789062 152.125 213.246094 152.125 227.070312 L 152.125 247.417969 " fill-opacity="1" fill-rule="nonzero"/><g clip-path="url(#a552594ad6)"><path fill="#ffbf19" d="M 344.171875 0 L 188.460938 0 C 174.621094 0 163.402344 11.222656 163.402344 25.0625 L 163.402344 180.78125 C 163.402344 194.621094 174.621094 205.839844 188.460938 205.839844 L 281.574219 205.839844 L 356.789062 238.964844 L 349.34375 205.300781 C 360.699219 202.921875 369.234375 192.847656 369.234375 180.78125 L 369.234375 25.0625 C 369.234375 11.222656 358.015625 0 344.171875 0 " fill-opacity="1" fill-rule="nonzero"/><path fill="#ffbf19" d="M 344.171875 0 L 188.460938 0 C 174.621094 0 163.402344 11.222656 163.402344 25.0625 L 163.402344 180.78125 C 163.402344 194.621094 174.621094 205.839844 188.460938 205.839844 L 281.574219 205.839844 L 356.789062 238.964844 L 349.34375 205.300781 C 360.699219 202.921875 369.234375 192.847656 369.234375 180.78125 L 369.234375 25.0625 C 369.234375 11.222656 358.015625 0 344.171875 0 " fill-opacity="1" fill-rule="nonzero"/></g><path fill="#ffffff" d="M 254.007812 121.300781 L 279.558594 121.300781 L 267.050781 81.453125 L 266.59375 81.453125 Z M 285.074219 139.082031 L 248.414062 139.082031 L 240.800781 163.472656 L 217.113281 163.472656 L 255.246094 50.390625 L 278.46875 50.390625 L 316.449219 163.472656 L 292.765625 163.472656 L 285.074219 139.082031 " fill-opacity="1" fill-rule="nonzero"/></svg>